Coordinates
version=1
nRows=7
nColumns=63
inDegrees=yes

Units are S.I. units (second, meters, Newtons, ...)
If the header above contains a line with 'inDegrees', this indicates whether rotational values are in degrees (yes) or radians (no).

endheader
time	pelvis_tilt	pelvis_list	pelvis_rotation	pelvis_tx	pelvis_ty	pelvis_tz	hip_flexion_r	hip_adduction_r	hip_rotation_r	knee_angle_r	knee_angle_r_beta	ankle_angle_r	subtalar_angle_r	mtp_angle_r	hip_flexion_l	hip_adduction_l	hip_rotation_l	knee_angle_l	knee_angle_l_beta	ankle_angle_l	subtalar_angle_l	mtp_angle_l	L5_S1_Flex_Ext	L5_S1_Lat_Bending	L5_S1_axial_rotation	L4_L5_Flex_Ext	L4_L5_Lat_Bending	L4_L5_axial_rotation	L3_L4_Flex_Ext	L3_L4_Lat_Bending	L3_L4_axial_rotation	L2_L3_Flex_Ext	L2_L3_Lat_Bending	L2_L3_axial_rotation	L1_L2_Flex_Ext	L1_L2_Lat_Bending	L1_L2_axial_rotation	L1_T12_Flex_Ext	L1_T12_Lat_Bending	L1_T12_axial_rotation	Abs_r3	Abs_r2	Abs_r1	Abs_t1	Abs_t2	neck_flexion	neck_bending	neck_rotation	arm_flex_r	arm_add_r	arm_rot_r	elbow_flex_r	pro_sup_r	wrist_flex_r	wrist_dev_r	arm_flex_l	arm_add_l	arm_rot_l	elbow_flex_l	pro_sup_l	wrist_flex_l	wrist_dev_l
      2.93333333	    -22.82159846	      6.71958895	    -98.03799249	     -0.05397741	      0.97705193	     -1.11517521	     24.28610183	     -5.22139622	    -26.37411795	     59.90392475	      1.04552072	     15.44898902	     14.91949743	      0.00000000	     34.03648505	    -18.43244561	     16.28035344	     60.28469556	      1.05216643	     22.22388630	    -19.56809547	      0.00000000	     -0.00679124	     -0.83952159	      0.43302876	     -0.01261201	     -1.11656372	      0.46009306	     -0.01115733	     -2.04121281	      0.46009306	     -0.00776171	     -2.04121281	      0.37890017	     -0.00630634	     -1.71195244	      0.35183587	     -0.00388051	     -1.30041895	      0.32477157	     -0.04850914	     -9.49683618	      2.40837607	      0.00000000	      0.00000000	    -11.25715317	     12.28111673	     -2.94195676	    -20.46068629	    -33.87351866	    -64.23477304	     92.37928343	     89.99559364	      0.00000000	      0.00000000	     -9.40943363	    -42.16594121	      5.32778188	     33.23635729	     89.99559364	      0.00000000	      0.00000000
      2.95000000	    -22.80129712	      6.63245958	    -99.78963827	     -0.05754554	      0.97712211	     -1.10693705	     25.28937372	     -6.40012858	    -24.03850231	     57.60709415	      1.00543347	     13.86269648	     15.73044945	      0.00000000	     32.95845653	    -19.46582882	     14.66065142	     60.78911053	      1.06097013	     22.38895692	    -19.53205644	      0.00000000	     -0.00890531	     -0.96517432	      1.00710033	     -0.01653806	     -1.28368185	      1.07004411	     -0.01463054	     -2.34672485	      1.07004411	     -0.01017788	     -2.34672485	      0.88121279	     -0.00826947	     -1.96818348	      0.81826902	     -0.00508850	     -1.49505503	      0.75532525	     -0.06360975	    -10.91824499	      5.60118993	      0.00000000	      0.00000000	    -11.14115664	     12.17181934	     -3.72116849	    -23.65860889	    -33.04550876	    -67.88259020	     92.54116517	     89.99559364	      0.00000000	      0.00000000	     -7.72964249	    -42.19635332	      3.21348208	     33.73934499	     89.99559364	      0.00000000	      0.00000000
      2.96666667	    -23.32327453	      6.60319453	    -99.61717692	     -0.05904539	      0.97661994	     -1.09789174	     25.62940458	     -7.65694457	    -23.45785196	     54.97571508	      0.95950724	     12.52793636	     16.29100615	      0.00000000	     32.41771995	    -19.97798015	     14.94686703	     60.89007354	      1.06273227	     22.80981222	    -19.50135878	      0.00000000	     -0.01039502	     -1.03398296	      1.22699736	     -0.01930460	     -1.37519734	      1.30368470	     -0.01707799	     -2.51402618	      1.30368470	     -0.01188047	     -2.51402618	      1.07362269	     -0.00965282	     -2.10849806	      0.99693536	     -0.00593972	     -1.60163961	      0.92024802	     -0.07425062	    -11.69662208	      6.82419123	      0.00000000	      0.00000000	    -10.91070622	     11.76124193	     -7.64758930	    -26.63021500	    -32.52540750	    -70.87931308	     92.17486099	     89.99559364	      0.00000000	      0.00000000	     -6.81527355	    -41.13029483	     -2.90431628	     34.71806912	     89.99559364	      0.00000000	      0.00000000
      2.98333333	    -24.35900247	      6.59571062	    -97.48978068	     -0.05860975	      0.97533394	     -1.08803379	     25.18724540	     -9.13760530	    -24.79343804	     52.32951641	      0.91332236	     11.77764902	     17.05324584	      0.00000000	     32.59300426	    -19.94998665	     17.25467561	     60.88167574	      1.06258570	     23.40436593	    -19.47757962	      0.00000000	     -0.01089087	     -1.03979770	      1.10640681	     -0.02022543	     -1.38293094	      1.17555724	     -0.01789260	     -2.52816413	      1.17555724	     -0.01244717	     -2.52816413	      0.96810596	     -0.01011326	     -2.12035547	      0.89895553	     -0.00622304	     -1.61064664	      0.82980511	     -0.07779237	    -11.76239955	      6.15350276	      0.00000000	      0.00000000	    -11.37961074	     11.58514118	     -8.34184474	    -29.55738375	    -32.09696044	    -73.67933867	     91.77966517	     89.99559364	      0.00000000	      0.00000000	     -5.49102501	    -41.10048079	     -4.19719902	     35.34035176	     89.99559364	      0.00000000	      0.00000000
      3.00000000	    -25.77253497	      6.55201762	    -94.32353706	     -0.05700664	      0.97346009	     -1.07840052	     24.21035901	    -10.53359054	    -27.20185528	     49.86810737	      0.87036267	     11.36299226	     17.64922489	      0.00000000	     33.22307503	    -19.74834937	     20.64969492	     60.88636729	      1.06266758	     24.04531585	    -19.46136939	      0.00000000	     -0.01301752	     -0.99677110	      0.73018405	     -0.02417483	     -1.32570556	      0.77582055	     -0.02138648	     -2.42354925	      0.77582055	     -0.01487772	     -2.42354925	      0.63891104	     -0.01208807	     -2.03261562	      0.59327454	     -0.00743821	     -1.54399843	      0.54763804	     -0.09298284	    -11.27567403	      4.06106463	      0.00000000	      0.00000000	    -12.37287081	     10.69447040	    -10.03719145	    -31.85104835	    -32.10841864	    -75.81969340	     91.32912965	     89.99559364	      0.00000000	      0.00000000	     -4.80889854	    -40.95089568	     -6.11091013	     36.26575073	     89.99559364	      0.00000000	      0.00000000
      3.01666667	    -27.27104498	      6.46159662	    -91.27276336	     -0.05571411	      0.97141214	     -1.07010279	     23.24563938	    -11.60284395	    -29.34716074	     47.85567173	      0.83523904	     10.96921750	     18.06699830	      0.00000000	     33.94295341	    -19.80375712	     23.78940054	     60.87227157	      1.06242156	     24.75998811	    -19.44937841	      0.00000000	     -0.01339474	     -0.93032831	      0.28142485	     -0.02487537	     -1.23733666	      0.29901391	     -0.02200622	     -2.26200026	      0.29901391	     -0.01530885	     -2.26200026	      0.24624675	     -0.01243836	     -1.89712550	      0.22865769	     -0.00765375	     -1.44107856	      0.21106864	     -0.09567729	    -10.52405995	      1.56520060	      0.00000000	      0.00000000	    -13.01327333	     10.55741198	     -9.54790449	    -33.50748441	    -32.60695397	    -77.31794355	     91.24618200	     89.99559364	      0.00000000	      0.00000000	     -4.40977370	    -41.59624766	     -5.58134396	     37.00116935	     89.99559364	      0.00000000	      0.00000000
      3.03333333	    -28.58781564	      6.17151027	    -89.19358930	     -0.05544937	      0.96978362	     -1.06270716	     22.28337427	    -12.39631046	    -30.76142069	     46.14873669	      0.80544740	     10.31307195	     18.38723153	      0.00000000	     34.22294185	    -20.27352077	     25.93744013	     60.99492573	      1.06456228	     25.46259767	    -19.43384977	      0.00000000	     -0.01379320	     -0.86810331	     -0.13447361	     -0.02561535	     -1.15457740	     -0.14287821	     -0.02266085	     -2.11070639	     -0.14287821	     -0.01576425	     -2.11070639	     -0.11766441	     -0.01280837	     -1.77023627	     -0.10925981	     -0.00788143	     -1.34469203	     -0.10085521	     -0.09852345	     -9.82015828	     -0.74790187	      0.00000000	      0.00000000	    -13.99246276	      9.95324709	     -7.63610450	    -34.35059689	    -33.72477804	    -77.84794037	     91.69019135	     89.99559364	      0.00000000	      0.00000000	     -5.00310530	    -42.66457392	     -4.72785569	     37.76097482	     89.99559364	      0.00000000	      0.00000000
